<?xml version="1.0" encoding="UTF-8"?>
<svg id="Ebene_1" xmlns="http://www.w3.org/2000/svg" xmlns:xlink="http://www.w3.org/1999/xlink" viewBox="0 0 769 769">
  <defs>
    <style>
      .cls-1 {
        fill: url(#Unbenannter_Verlauf_5);
      }

      .cls-2 {
        fill: #fefefd;
      }
    </style>
    <linearGradient id="Unbenannter_Verlauf_5" data-name="Unbenannter Verlauf 5" x1="751.12" y1="-57.63" x2="-29.91" y2="884.26" gradientUnits="userSpaceOnUse">
      <stop offset="0" stop-color="#ff3c00"/>
      <stop offset="1" stop-color="#b860f8"/>
    </linearGradient>
  </defs>
  <path class="cls-1" d="M769,0v384.5c0,212.35-172.15,384.5-384.5,384.5H0v-384.5C0,172.15,172.15,0,384.5,0h384.5Z"/>
  <path class="cls-2" d="M462.55,122.29c57.25-.02,107.77,39.23,121.56,94.8,5.39,21.72,4.24,43.3-3.15,64.51-2.34,6.73-2.24,6.87-7.95,2.67-20.52-15.11-42.92-26.47-67.44-33.49-3.35-.96-2.47-2.96-2.27-5.01,1.09-11.65-2.2-21.85-10.41-30.23-12.55-12.82-32.28-14.8-47.72-4.95-47.31,30.2-94.6,60.42-141.9,90.64-4.27,2.73-8.51,5.53-12.82,8.2-11.6,7.2-17.57,17.48-16.64,31.23.91,13.55,7.81,23.59,19.69,29.76,13.25,6.87,26.48,5.64,38.99-2.25,19.03-12,38.06-24,56.88-36.32,45.42-29.74,104.81-23.97,144.9,9.51,20.98,17.51,35.59,39.32,41.88,66.2,10.94,46.73-6.52,93.18-46.51,118.94-50.05,32.25-100.45,63.96-150.61,96.03-11.46,7.33-23.03,14.33-36.1,18.39-26.86,8.35-53.7,7.74-79.83-2.3-38.58-14.83-64.58-42.15-76.83-81.82-6.5-21.07-6.01-42.43-.31-63.68.86-3.19,1.94-6.32,2.67-9.54.6-2.63,1.33-3.11,3.7-1.35,9.65,7.17,19.65,13.84,30.29,19.49,12.2,6.48,24.93,11.64,38.1,15.77q4.71,1.48,4.38,6.37c-1.3,19.02,10.1,35.09,28.37,39.86,10.38,2.71,20.29,1.11,29.23-4.58,52.01-33.08,103.95-66.28,155.86-99.52,13.31-8.52,18.75-21.96,15.28-36.75-3.4-14.47-16.17-25.89-30.72-27.81-9.99-1.31-19.02.98-27.41,6.33-18.69,11.91-37.51,23.63-56.04,35.79-46.61,30.59-114.87,24.8-157.2-20.7-17.55-18.86-29.13-40.87-31.9-66.56-4.95-45.94,11.13-83.01,50.2-108.41,52.6-34.2,105.75-67.55,158.74-101.15,19.19-12.17,40.3-18.06,63.04-18.07Z"/>
</svg>